<mxfile host="app.diagrams.net" agent="Mozilla/5.0 (Windows NT 10.0; Win64; x64) AppleWebKit/537.36 (KHTML, like Gecko) Chrome/126.0.0.0 Safari/537.36 OPR/112.0.0.0" version="24.7.12">
  <diagram name="Страница — 1" id="DNDK22ndkqmwU-_VQPLV">
    <mxGraphModel dx="1380" dy="747" grid="1" gridSize="10" guides="1" tooltips="1" connect="1" arrows="1" fold="1" page="1" pageScale="1" pageWidth="827" pageHeight="1169" math="0" shadow="0">
      <root>
        <mxCell id="0" />
        <mxCell id="1" parent="0" />
        <mxCell id="X3hLX0CLHgd_pWzVqLk9-1" value="Начало" style="strokeWidth=2;html=1;shape=mxgraph.flowchart.start_1;whiteSpace=wrap;" vertex="1" parent="1">
          <mxGeometry x="364" y="20" width="100" height="60" as="geometry" />
        </mxCell>
        <mxCell id="X3hLX0CLHgd_pWzVqLk9-4" value="Загрузка стартовой&lt;br&gt;страницы" style="rounded=0;whiteSpace=wrap;html=1;" vertex="1" parent="1">
          <mxGeometry x="354" y="110" width="120" height="60" as="geometry" />
        </mxCell>
        <mxCell id="X3hLX0CLHgd_pWzVqLk9-5" value="" style="endArrow=none;html=1;rounded=0;entryX=0.5;entryY=1;entryDx=0;entryDy=0;entryPerimeter=0;exitX=0.5;exitY=0;exitDx=0;exitDy=0;" edge="1" parent="1" source="X3hLX0CLHgd_pWzVqLk9-4" target="X3hLX0CLHgd_pWzVqLk9-1">
          <mxGeometry width="50" height="50" relative="1" as="geometry">
            <mxPoint x="600" y="150" as="sourcePoint" />
            <mxPoint x="600" y="80" as="targetPoint" />
          </mxGeometry>
        </mxCell>
        <mxCell id="X3hLX0CLHgd_pWzVqLk9-7" value="" style="endArrow=none;html=1;rounded=0;entryX=0.5;entryY=1;entryDx=0;entryDy=0;exitX=0.5;exitY=0;exitDx=0;exitDy=0;" edge="1" parent="1" source="X3hLX0CLHgd_pWzVqLk9-20" target="X3hLX0CLHgd_pWzVqLk9-4">
          <mxGeometry width="50" height="50" relative="1" as="geometry">
            <mxPoint x="414" y="190" as="sourcePoint" />
            <mxPoint x="450" y="330" as="targetPoint" />
          </mxGeometry>
        </mxCell>
        <mxCell id="X3hLX0CLHgd_pWzVqLk9-20" value="Загрузка главной страницы" style="rounded=0;whiteSpace=wrap;html=1;" vertex="1" parent="1">
          <mxGeometry x="353.5" y="230" width="120" height="60" as="geometry" />
        </mxCell>
        <mxCell id="X3hLX0CLHgd_pWzVqLk9-24" value="Главная страница" style="shape=display;whiteSpace=wrap;html=1;" vertex="1" parent="1">
          <mxGeometry x="343.5" y="345" width="136" height="60" as="geometry" />
        </mxCell>
        <mxCell id="X3hLX0CLHgd_pWzVqLk9-25" value="" style="endArrow=none;html=1;rounded=0;exitX=0.5;exitY=1;exitDx=0;exitDy=0;entryX=0;entryY=0;entryDx=70;entryDy=0;entryPerimeter=0;" edge="1" parent="1" target="X3hLX0CLHgd_pWzVqLk9-24">
          <mxGeometry width="50" height="50" relative="1" as="geometry">
            <mxPoint x="413.5" y="290" as="sourcePoint" />
            <mxPoint x="415.5" y="345" as="targetPoint" />
          </mxGeometry>
        </mxCell>
        <mxCell id="X3hLX0CLHgd_pWzVqLk9-26" value="Нажать на кнопку страницы списка пользователей" style="verticalLabelPosition=middle;verticalAlign=middle;html=1;shape=trapezoid;perimeter=trapezoidPerimeter;whiteSpace=wrap;size=0.23;arcSize=10;flipV=1;labelPosition=center;align=center;" vertex="1" parent="1">
          <mxGeometry x="144.5" y="338" width="150" height="75" as="geometry" />
        </mxCell>
        <mxCell id="X3hLX0CLHgd_pWzVqLk9-27" value="Нажать на кнопку страницы тэгов" style="verticalLabelPosition=middle;verticalAlign=middle;html=1;shape=trapezoid;perimeter=trapezoidPerimeter;whiteSpace=wrap;size=0.23;arcSize=10;flipV=1;labelPosition=center;align=center;" vertex="1" parent="1">
          <mxGeometry x="539.5" y="337" width="140" height="75" as="geometry" />
        </mxCell>
        <mxCell id="X3hLX0CLHgd_pWzVqLk9-28" value="" style="endArrow=none;html=1;rounded=0;entryX=0;entryY=0.5;entryDx=0;entryDy=0;entryPerimeter=0;exitX=1;exitY=0.5;exitDx=0;exitDy=0;" edge="1" parent="1" source="X3hLX0CLHgd_pWzVqLk9-26" target="X3hLX0CLHgd_pWzVqLk9-24">
          <mxGeometry width="50" height="50" relative="1" as="geometry">
            <mxPoint x="239.5" y="590" as="sourcePoint" />
            <mxPoint x="289.5" y="540" as="targetPoint" />
          </mxGeometry>
        </mxCell>
        <mxCell id="X3hLX0CLHgd_pWzVqLk9-29" value="" style="endArrow=none;html=1;rounded=0;entryX=0;entryY=0.5;entryDx=0;entryDy=0;exitX=1;exitY=0.5;exitDx=0;exitDy=0;exitPerimeter=0;" edge="1" parent="1" source="X3hLX0CLHgd_pWzVqLk9-24" target="X3hLX0CLHgd_pWzVqLk9-27">
          <mxGeometry width="50" height="50" relative="1" as="geometry">
            <mxPoint x="449.5" y="580" as="sourcePoint" />
            <mxPoint x="499.5" y="530" as="targetPoint" />
          </mxGeometry>
        </mxCell>
        <mxCell id="X3hLX0CLHgd_pWzVqLk9-30" value="Страница списка пользователей" style="shape=display;whiteSpace=wrap;html=1;" vertex="1" parent="1">
          <mxGeometry x="152.5" y="580" width="125" height="54" as="geometry" />
        </mxCell>
        <mxCell id="X3hLX0CLHgd_pWzVqLk9-32" value="" style="endArrow=none;html=1;rounded=0;entryX=0.5;entryY=1;entryDx=0;entryDy=0;exitX=0.537;exitY=0.005;exitDx=0;exitDy=0;exitPerimeter=0;" edge="1" parent="1" source="X3hLX0CLHgd_pWzVqLk9-30" target="X3hLX0CLHgd_pWzVqLk9-26">
          <mxGeometry width="50" height="50" relative="1" as="geometry">
            <mxPoint x="219.5" y="570" as="sourcePoint" />
            <mxPoint x="134.5" y="440" as="targetPoint" />
          </mxGeometry>
        </mxCell>
        <mxCell id="X3hLX0CLHgd_pWzVqLk9-33" value="" style="endArrow=none;html=1;rounded=0;entryX=0.5;entryY=1;entryDx=0;entryDy=0;exitX=0;exitY=0;exitDx=40;exitDy=0;exitPerimeter=0;" edge="1" parent="1" target="X3hLX0CLHgd_pWzVqLk9-27">
          <mxGeometry width="50" height="50" relative="1" as="geometry">
            <mxPoint x="609.5" y="582" as="sourcePoint" />
            <mxPoint x="489.5" y="560" as="targetPoint" />
          </mxGeometry>
        </mxCell>
        <mxCell id="X3hLX0CLHgd_pWzVqLk9-34" value="Данные&lt;br&gt;пользователей" style="strokeWidth=2;html=1;shape=mxgraph.flowchart.direct_data;whiteSpace=wrap;" vertex="1" parent="1">
          <mxGeometry x="259.5" y="470" width="140" height="60" as="geometry" />
        </mxCell>
        <mxCell id="X3hLX0CLHgd_pWzVqLk9-35" value="Данные тегов" style="strokeWidth=2;html=1;shape=mxgraph.flowchart.direct_data;whiteSpace=wrap;" vertex="1" parent="1">
          <mxGeometry x="439.5" y="470" width="140" height="60" as="geometry" />
        </mxCell>
        <mxCell id="X3hLX0CLHgd_pWzVqLk9-37" value="" style="endArrow=none;html=1;rounded=0;entryX=0;entryY=0.5;entryDx=0;entryDy=0;entryPerimeter=0;" edge="1" parent="1" target="X3hLX0CLHgd_pWzVqLk9-34">
          <mxGeometry width="50" height="50" relative="1" as="geometry">
            <mxPoint x="219.5" y="500" as="sourcePoint" />
            <mxPoint x="265.5" y="500" as="targetPoint" />
          </mxGeometry>
        </mxCell>
        <mxCell id="X3hLX0CLHgd_pWzVqLk9-38" value="" style="endArrow=none;html=1;rounded=0;exitX=1;exitY=0.5;exitDx=0;exitDy=0;exitPerimeter=0;" edge="1" parent="1" source="X3hLX0CLHgd_pWzVqLk9-35">
          <mxGeometry width="50" height="50" relative="1" as="geometry">
            <mxPoint x="499.5" y="650" as="sourcePoint" />
            <mxPoint x="609.5" y="500" as="targetPoint" />
          </mxGeometry>
        </mxCell>
        <mxCell id="X3hLX0CLHgd_pWzVqLk9-39" value="Страница списка тэгов" style="shape=display;whiteSpace=wrap;html=1;" vertex="1" parent="1">
          <mxGeometry x="539.5" y="580" width="125" height="54" as="geometry" />
        </mxCell>
        <mxCell id="X3hLX0CLHgd_pWzVqLk9-40" value="&lt;br&gt;Редактирование списка" style="html=1;strokeWidth=2;shape=manualInput;whiteSpace=wrap;rounded=1;size=26;arcSize=11;" vertex="1" parent="1">
          <mxGeometry x="169.5" y="680" width="100" height="70" as="geometry" />
        </mxCell>
        <mxCell id="X3hLX0CLHgd_pWzVqLk9-41" value="&lt;br&gt;Редактирование тэгов" style="html=1;strokeWidth=2;shape=manualInput;whiteSpace=wrap;rounded=1;size=26;arcSize=11;" vertex="1" parent="1">
          <mxGeometry x="552.5" y="680" width="100" height="70" as="geometry" />
        </mxCell>
        <mxCell id="X3hLX0CLHgd_pWzVqLk9-42" value="Отметить посещение" style="verticalLabelPosition=middle;verticalAlign=middle;html=1;shape=trapezoid;perimeter=trapezoidPerimeter;whiteSpace=wrap;size=0.23;arcSize=10;flipV=1;labelPosition=center;align=center;" vertex="1" parent="1">
          <mxGeometry x="169" y="810" width="100" height="60" as="geometry" />
        </mxCell>
        <mxCell id="X3hLX0CLHgd_pWzVqLk9-43" value="" style="endArrow=none;html=1;rounded=0;entryX=0;entryY=0;entryDx=64.625;entryDy=54;entryPerimeter=0;exitX=0.524;exitY=0.174;exitDx=0;exitDy=0;exitPerimeter=0;" edge="1" parent="1" source="X3hLX0CLHgd_pWzVqLk9-40">
          <mxGeometry width="50" height="50" relative="1" as="geometry">
            <mxPoint x="222.5" y="690" as="sourcePoint" />
            <mxPoint x="222.125" y="634" as="targetPoint" />
          </mxGeometry>
        </mxCell>
        <mxCell id="X3hLX0CLHgd_pWzVqLk9-44" value="" style="endArrow=none;html=1;rounded=0;entryX=0.5;entryY=1;entryDx=0;entryDy=0;exitX=0.5;exitY=0;exitDx=0;exitDy=0;" edge="1" parent="1" source="X3hLX0CLHgd_pWzVqLk9-42" target="X3hLX0CLHgd_pWzVqLk9-40">
          <mxGeometry width="50" height="50" relative="1" as="geometry">
            <mxPoint x="369.5" y="720" as="sourcePoint" />
            <mxPoint x="419.5" y="670" as="targetPoint" />
          </mxGeometry>
        </mxCell>
        <mxCell id="X3hLX0CLHgd_pWzVqLk9-45" value="" style="endArrow=none;html=1;rounded=0;entryX=0.551;entryY=1.004;entryDx=0;entryDy=0;entryPerimeter=0;exitX=0.553;exitY=0.173;exitDx=0;exitDy=0;exitPerimeter=0;" edge="1" parent="1" source="X3hLX0CLHgd_pWzVqLk9-41" target="X3hLX0CLHgd_pWzVqLk9-39">
          <mxGeometry width="50" height="50" relative="1" as="geometry">
            <mxPoint x="604.5" y="670" as="sourcePoint" />
            <mxPoint x="409.5" y="820" as="targetPoint" />
          </mxGeometry>
        </mxCell>
      </root>
    </mxGraphModel>
  </diagram>
</mxfile>
